<?xml version="1.0" encoding="utf-8"?>
<!-- Generator: Adobe Illustrator 22.0.1, SVG Export Plug-In . SVG Version: 6.00 Build 0)  -->
<svg version="1.1" id="レイヤー_1" xmlns="http://www.w3.org/2000/svg" xmlns:xlink="http://www.w3.org/1999/xlink" x="0px"
	 y="0px" viewBox="0 0 692 96" style="enable-background:new 0 0 692 96;" xml:space="preserve">
<style type="text/css">
	.st0{clip-path:url(#SVGID_2_);fill:url(#SVGID_3_);}
	.st1{clip-path:url(#SVGID_5_);fill:url(#SVGID_6_);}
	.st2{fill:#231815;}
</style>
<g>
	<g>
		<defs>
			<path id="SVGID_1_" d="M41.4,33.8l-6.7,22.3c10.7,0.9,18.1-3.6,21.5-14.6c0.8-2.6,3-10.1,3-10.1C53.1,31.6,46.4,32.6,41.4,33.8
				 M8.2,63.1C8.2,63.2,8.3,63.1,8.2,63.1c-10.2-14.9,2.7-47.5,55.5-47l4.6-15.3c-0.9,0-1.7,0-2.5,0C5.3,0.7-12.3,44.3,8.2,63.1"/>
		</defs>
		<clipPath id="SVGID_2_">
			<use xlink:href="#SVGID_1_"  style="overflow:visible;"/>
		</clipPath>
		
			<linearGradient id="SVGID_3_" gradientUnits="userSpaceOnUse" x1="171.2138" y1="801.7658" x2="175.9774" y2="801.7658" gradientTransform="matrix(14.3513 0 0 -14.3513 -2457.1394 11538.3311)">
			<stop  offset="0" style="stop-color:#8DC21F"/>
			<stop  offset="1" style="stop-color:#009844"/>
		</linearGradient>
		<rect x="-12.3" y="0.7" class="st0" width="80.7" height="62.4"/>
	</g>
	<g>
		<defs>
			<path id="SVGID_4_" d="M59.1,31.4c19.3-1,29.7,6.5,28.2,16c-2.7,16.7-31.6,25.5-57.8,25.5l-6.8,22.3c11.1,0.9,18.1-3.8,21.5-14.7
				c0.6-2,2.3-7.6,2.3-7.6c27.3-0.4,51.3-9.4,55.8-27.5c3.8-15.3-11.3-29.2-38.6-29.2L59.1,31.4z"/>
		</defs>
		<clipPath id="SVGID_5_">
			<use xlink:href="#SVGID_4_"  style="overflow:visible;"/>
		</clipPath>
		
			<linearGradient id="SVGID_6_" gradientUnits="userSpaceOnUse" x1="178.9073" y1="801.1078" x2="183.6709" y2="801.1078" gradientTransform="matrix(16.845 0 0 -16.845 -2991.0161 13550.7334)">
			<stop  offset="0" style="stop-color:#EC6C00"/>
			<stop  offset="1" style="stop-color:#FCCF00"/>
		</linearGradient>
		<rect x="22.7" y="16.1" class="st1" width="83.5" height="80"/>
	</g>
	<path class="st2" d="M568.8,47.9c1.9,4.6,4.3,9.2,7.1,13.1v3.2c-3.1-2.4-6.7-6.9-9-12.3V66h-4.1l0-14.2c-2.2,5-6.1,9.8-9.5,12.3V61
		c2.7-3.3,5.5-8.2,7.3-13.1h-6.8V45h9v-6.4h-4.2c-0.9,2.1-3.1,4.1-4.8,5v-3.1c1.6-1.6,2.4-5.2,2.4-9.3h3.6c0,1.6-0.2,3.1-0.4,4.4
		h3.4V30h4.1v5.6h7.7v2.9h-7.7V45h8.5v2.9H568.8z M548.7,30h-4.1v6.2H540v2.9h4.2c-1,4.5-2.3,8.5-4.7,12.7v3.7c1.8-2,3.7-5,5.1-8V66
		h4.1V45.1c0,0,2.4,2.7,3.5,3.8v-3.4c-0.8-1-2.2-3-3.5-4.5v-1.9h3.5v-2.9h-3.5V30z M605.9,30h-4.4v5.6h-20.7v3.1h20.7
		c0.2,12.7,3.3,21.6,12.1,27.3v-3.2c-5.7-6-7.6-13.1-7.7-24.1h7.7v-3.1h-7.7V30z M608.3,33.3h5.3v-2.7h-5.3V33.3z M592.7,47.8h6.8
		v-3.1h-18.1v3.1h7V61c-2.2,0.3-4.9,0.6-7.6,0.7V65c8-0.4,13.8-1.4,20.2-3.1v-3.1c-2.7,0.8-5.5,1.2-8.2,1.7V47.8z M651.5,43v-3
		c-5.1-1.6-10.1-5.4-14-10h-5.5c-3.9,4.6-9.2,8.7-14,10v3c6-1.7,12.4-5.4,16.7-9.7C639.1,37.6,645.6,41.4,651.5,43 M622.7,45h24.1
		v-3.1h-24.1V45z M641.5,55l2.7,4.9c-5.3,1.1-10.6,1.5-16.5,1.7l3.8-9.3h20.1v-3.1h-33.4v3.1h9l-3.9,9.4c-1.3,0-2,0-3.6,0v3.5
		c10.9,0,17.7-0.8,26-2.7l1.7,3.3l4.6,0L646,55H641.5z M671.6,51.7c-1.3-0.9-2.9-2.5-4.5-3.6c2.2-3.2,4.2-7.3,4.4-12.4h-5.3V30h-3.8
		v5.6h-5.3v2.9h10.1c-1.3,6.6-4.8,11.4-11.2,14.3v2.9c2.1-0.7,4.5-1.8,6.4-3.1V66h3.8V51c1.8,1.2,3.8,2.9,5.4,4V51.7z M683.9,61.8
		V42.4h6.8v-3.1h-6.8V30h-4.3v9.3h-6.8v3.1h6.8v19.4h-8.1v3.1H692v-3.1H683.9z M204.4,46.3v3.9c4.4-2,9.1-8.4,10.4-14.7h14.6v2.3
		c0,2.5-0.3,4.9-0.8,7.1h-14.7v3.5h13.6c-2.8,7.1-8.8,12.1-18.1,13.9v3.2c17.1-2.4,25.4-13.2,25.4-29.2v-4.7h-24.4
		C209.4,38.6,207.1,43.3,204.4,46.3 M351.9,43.8h25.3v1.7c0,7.7-6.7,15.7-19,16.8v3.3c15.6-1.3,24.5-9.8,24.5-21.5V40h-30.8V43.8z
		 M347.7,33.2c0,3-2.4,5.5-5.5,5.5c-0.3,15.8-8.8,24.6-25.9,27v-3.3c13.7-2.7,20.4-10.4,20.4-23.1V37h-24.5v-3.9h24.5
		c0-3,2.5-5.4,5.5-5.4C345.2,27.7,347.7,30.2,347.7,33.2 M345,33.2c0-1.5-1.2-2.7-2.7-2.7c-1.5,0-2.7,1.2-2.7,2.7
		c0,1.5,1.2,2.7,2.7,2.7C343.7,35.9,345,34.7,345,33.2 M452.7,33.2h-27V37h27V33.2z M424,63.3h30.5v-3.9H424V63.3z M527.2,36h3.3
		v-5.7h-3.3V36z M525.5,31.7h-21.3c-1,6.9-3.3,11.6-6,14.6v3.9c4.4-2,9.1-8.4,10.4-14.7h14.6v2.3c0,12.8-6.6,22-20,24.6v3.2
		c16.8-2.3,25.1-12.8,25.4-28.4h-3.1V31.7z M532.4,36h3.3v-5.7h-3.3V36z M379.9,30.9h-25.3v3.9h25.3V30.9z M294.9,33.2h-17.3V37
		h17.3V33.2z M276.8,62.3v3.3c21.6,0,30.8-9.9,32.5-23.8h-5.5C302,54.6,292.8,62.3,276.8,62.3 M387.7,62.3v3.3
		c21.6,0,30.8-9.9,32.5-23.8h-5.5C412.9,54.6,403.7,62.3,387.7,62.3 M461.1,62.3v3.3c21.6,0,30.8-9.9,32.5-23.8h-5.5
		C486.3,54.6,477,62.3,461.1,62.3 M405.8,33.2h-17.3V37h17.3V33.2z M479.2,33.2h-17.3V37h17.3V33.2z M258.7,29.5h-5.3v5.1h-12.7
		v11.8h5.3v-7.9h19.9v2.2c0,12.7-5.3,19.1-19,21.8v3.3c17.5-2.4,24.6-10.1,24.6-26.5v-4.6h-12.7V29.5z M176.9,39.7H169v2.2h7.9V39.7
		z M167.1,37.9H179v8.4h4.1v-8.4H195v7.8h3.8V35.3h-15.7v-2.1h12.4v-2.9h-28.8v2.9H179v2.1h-15.7v10.3h3.9V37.9z M169,45.6h7.9v-2.1
		H169V45.6z M193.1,39.7h-7.9v2.2h7.9V39.7z M185.2,45.6h7.9v-2.1h-7.9V45.6z M197,59.7l-0.3,2.1c-0.2,1.4-0.8,2-2.4,2H185
		c-1.3,0-1.9-0.6-1.9-1.8v-1.4h12.6V48h-29.6v12.7H179v1.7c0,2.5,1.3,3.7,4.4,3.7h12c3.2,0,4.7-0.9,5.2-4.1l0.3-2.2H197z
		 M183.1,50.6h8.4v2.4h-8.4V50.6z M183.1,55.5h8.4V58h-8.4V55.5z M179,58h-8.8v-2.5h8.8V58z M179,52.9h-8.8v-2.4h8.8V52.9z
		 M147.4,53.6h9.6V38.6h-13.3v-2.9H159v-2.9h-15.3V30h-4.4v2.7H124v2.9h15.2v2.9H126v15.1h9.6c-3.8,3.8-7.7,6.2-12.2,8.5v2.5
		c6.2-2,12-5.4,15.8-8.7v10h4.4V56c3.8,3.3,9.6,6.7,15.8,8.7v-2.5C155.1,59.8,151.2,57.4,147.4,53.6 M139.3,51.1h-8.8v-3.9h8.8V51.1
		z M139.3,44.6h-8.8v-3.5h8.8V44.6z M143.7,41.2h8.8v3.5h-8.8V41.2z M143.7,47.2h8.8v3.9h-8.8V47.2z"/>
</g>
</svg>
